<svg xmlns="http://www.w3.org/2000/svg" width="1171" height="429" viewBox="0 0 1171 429" fill="none"><rect width="1170" height="429" rx="8" fill="transparent"></rect><path opacity="0.3" d="M421.321 426.804C415.931 410.713 406.628 395.98 394.41 384.241C365.262 356.252 318.746 348.865 277.141 345.312C259.373 343.795 241.445 343.675 223.757 344.993C219.764 345.272 215.851 345.711 212.058 346.111C200.439 347.348 189.419 348.506 177.321 345.871C164.783 343.156 155.041 335.849 151.288 326.426C147.135 315.965 150.409 304.466 153.603 293.366L154.242 291.13C158.834 274.84 157.157 261.704 148.772 248.528C139.668 234.114 123.258 223.693 103.813 219.86C65.0828 212.234 31.7828 228.963 0 248.328V249.207C31.7828 229.842 65.0828 212.992 103.693 220.579C122.939 224.372 139.149 234.673 148.173 248.847C156.438 261.824 158.075 274.8 153.563 290.851L152.925 293.087C149.73 304.306 146.416 315.965 150.649 326.626C154.482 336.328 164.424 343.755 177.201 346.55C189.419 349.225 200.479 348.027 212.178 346.789C215.931 346.39 219.844 345.991 223.837 345.671C241.445 344.394 259.373 344.513 277.101 345.991C318.586 349.504 364.943 356.851 393.931 384.72C406.069 396.379 415.292 410.993 420.642 426.964C420.842 427.602 421.042 428.241 421.241 428.88H422.04C421.76 428.241 421.561 427.523 421.321 426.804Z" fill="#93a7d1"></path><path opacity="0.3" d="M45.518 236.23C63.8849 229.123 81.054 226.887 98.0235 229.363C117.189 232.118 133.4 241.581 142.463 255.276C150.569 267.454 152.525 279.951 148.812 295.722L148.413 297.319C147.175 302.63 145.857 308.14 145.418 313.53C144.899 319.878 145.618 325.229 147.694 329.9C151.767 339.004 161.549 345.991 173.887 348.546C176.123 349.025 178.399 349.345 180.715 349.584C190.058 350.543 198.882 349.584 208.225 348.546C211.779 348.147 215.452 347.748 219.205 347.428C225.394 346.949 231.623 346.59 237.692 346.43C248.752 346.151 259.932 346.39 270.872 347.229C291.036 348.706 317.229 351.381 340.826 359.247C350.529 362.481 358.594 366.154 365.462 370.546C371.97 374.699 377.76 379.57 382.631 385C386.504 389.312 389.938 394.064 393.172 399.574C397.923 407.639 401.637 416.583 404.192 426.125C404.432 427.044 404.671 428.002 404.911 428.96H405.669C405.43 427.962 405.19 426.964 404.911 425.966C402.315 416.383 398.602 407.399 393.811 399.254C390.577 393.744 387.103 388.913 383.19 384.561C378.279 379.091 372.449 374.18 365.861 369.987C358.914 365.595 350.808 361.882 341.066 358.608C317.348 350.702 291.116 348.027 270.912 346.55C259.932 345.751 248.752 345.472 237.652 345.751C231.583 345.911 225.354 346.23 219.125 346.75C215.372 347.069 211.699 347.468 208.145 347.868C198.842 348.906 190.098 349.864 180.794 348.906C178.518 348.666 176.243 348.307 174.047 347.868C161.948 345.352 152.366 338.564 148.373 329.661C146.336 325.109 145.618 319.878 146.137 313.69C146.576 308.339 147.894 302.869 149.131 297.599L149.531 296.002C153.284 279.991 151.288 267.334 143.102 254.956C133.879 241.062 117.508 231.519 98.1033 228.684C81.054 226.129 63.7652 228.365 45.2385 235.552C29.427 241.701 14.454 250.684 0 260.307V261.225C14.5738 251.523 29.6266 242.419 45.518 236.23Z" fill="#93a7d1"></path><path opacity="0.3" d="M41.8446 247.65C59.4529 239.744 75.9832 236.67 92.3936 238.187C111.2 239.944 127.85 248.768 136.834 261.784C144.739 273.163 146.975 285.182 144.14 300.713L143.981 301.632C142.982 306.942 141.984 312.452 141.865 317.802C141.705 323.791 142.663 328.862 144.859 333.254C149.131 341.799 158.794 348.267 170.693 350.623C172.849 351.062 175.085 351.381 177.321 351.581C186.544 352.459 195.208 351.461 204.392 350.383C207.706 349.984 211.14 349.584 214.613 349.305C220.722 348.746 226.752 348.387 232.541 348.187C243.322 347.788 254.142 347.907 264.723 348.546C284.088 349.704 309.323 352.02 332.641 359.686C342.383 362.88 350.129 366.514 356.318 370.866C362.228 374.978 367.298 379.849 371.411 385.359C374.406 389.392 377.001 393.904 379.596 399.494C383.19 407.24 385.945 415.944 387.822 425.287C388.061 426.525 388.301 427.762 388.5 429H389.259C389.059 427.722 388.82 426.405 388.58 425.167C386.704 415.744 383.909 407 380.315 399.214C377.72 393.545 375.084 389.033 372.05 384.96C367.897 379.37 362.747 374.459 356.757 370.267C350.489 365.915 342.663 362.201 332.88 359.007C309.483 351.341 284.168 349.025 264.763 347.828C254.182 347.189 243.322 347.069 232.501 347.468C226.712 347.668 220.643 348.067 214.534 348.626C211.02 348.946 207.586 349.345 204.272 349.704C195.129 350.742 186.504 351.741 177.361 350.902C175.165 350.702 172.968 350.383 170.812 349.944C159.153 347.668 149.69 341.319 145.498 332.975C143.342 328.702 142.384 323.751 142.583 317.882C142.703 312.572 143.741 307.102 144.699 301.831L144.859 300.913C147.774 285.182 145.458 273.004 137.432 261.425C128.289 248.249 111.479 239.305 92.4335 237.508C75.9033 235.951 59.2533 239.065 41.5252 247.011C26.9115 253.519 13.2162 262.463 0 272.085V273.004C13.336 263.301 27.1112 254.238 41.8446 247.65Z" fill="#93a7d1"></path><path opacity="0.3" d="M38.1315 259.029C55.3006 250.165 70.7129 246.332 86.724 246.971C105.41 247.69 122.06 255.635 131.164 268.213C138.83 278.793 141.386 290.332 139.429 305.585C138.75 310.975 138.032 316.565 138.231 321.995C138.431 327.664 139.669 332.416 141.985 336.528C146.496 344.474 155.999 350.503 167.459 352.619C169.535 353.018 171.691 353.298 173.887 353.497C182.951 354.296 191.495 353.258 200.559 352.14C203.633 351.781 206.788 351.381 210.022 351.062C216.131 350.463 221.801 350.064 227.351 349.784C237.852 349.265 248.353 349.265 258.535 349.744C275.704 350.543 301.218 352.499 324.456 359.966C334.158 363.08 341.585 366.713 347.215 371.026C352.565 375.138 356.957 380.049 360.231 385.599C362.987 390.231 364.663 394.942 366.061 399.294C368.497 406.88 370.293 415.305 371.491 424.369C371.691 425.886 371.851 427.403 372.01 428.96H372.769C372.609 427.363 372.449 425.806 372.25 424.289C371.092 415.185 369.255 406.721 366.82 399.095C365.422 394.663 363.705 389.951 360.91 385.24C357.556 379.61 353.124 374.619 347.694 370.467C342.024 366.115 334.478 362.441 324.695 359.287C301.377 351.781 275.784 349.824 258.614 349.026C248.393 348.546 237.892 348.546 227.351 349.066C221.761 349.345 216.091 349.744 209.982 350.343C206.748 350.663 203.554 351.022 200.479 351.421C191.455 352.499 182.951 353.537 173.967 352.779C171.811 352.579 169.695 352.3 167.618 351.94C156.399 349.864 147.055 343.995 142.663 336.249C140.427 332.256 139.229 327.625 139.03 322.075C138.83 316.724 139.549 311.174 140.228 305.824C142.224 290.332 139.629 278.634 131.843 267.893C122.579 255.116 105.73 247.051 86.8039 246.332C70.6729 245.693 55.1409 249.566 37.852 258.47C24.7556 265.258 12.338 274.042 0.0800781 283.784V284.742C12.3779 274.761 24.9153 265.857 38.1315 259.029Z" fill="#93a7d1"></path><path opacity="0.3" d="M34.418 270.408C50.8684 260.706 65.6817 256.034 81.054 255.755C99.6206 255.395 116.231 262.502 125.494 274.68C132.921 284.423 135.756 295.483 134.717 310.535C134.358 315.925 134.039 321.196 134.598 326.227C135.157 331.577 136.634 336.009 139.07 339.842C143.781 347.228 153.164 352.738 164.184 354.655C166.221 355.014 168.297 355.254 170.413 355.414C179.357 356.092 187.822 355.014 196.766 353.896C199.561 353.537 202.475 353.178 205.39 352.858C211.419 352.219 216.889 351.74 222.16 351.421C232.382 350.782 242.523 350.662 252.346 350.982C278.538 351.86 298.822 354.815 316.23 360.325C325.853 363.359 332.96 366.953 338.031 371.265C342.902 375.377 346.576 380.328 349.011 385.878C350.888 390.19 351.687 394.463 352.485 399.174C353.723 406.521 354.641 414.945 355.081 423.53C355.16 425.326 355.24 427.163 355.28 429H356.039C355.999 427.123 355.919 425.287 355.839 423.49C355.36 414.905 354.482 406.441 353.244 399.054C352.445 394.303 351.607 389.991 349.73 385.599C347.255 379.929 343.501 374.898 338.55 370.706C333.4 366.314 326.173 362.72 316.47 359.646C299.021 354.136 278.658 351.141 252.385 350.263C242.563 349.904 232.382 350.063 222.16 350.702C216.889 351.022 211.379 351.501 205.35 352.14C202.396 352.459 199.521 352.818 196.686 353.178C187.782 354.296 179.357 355.374 170.493 354.695C168.417 354.535 166.34 354.296 164.344 353.936C153.563 352.1 144.34 346.669 139.748 339.483C137.393 335.769 135.955 331.417 135.396 326.227C134.877 321.276 135.157 316.045 135.516 310.695C136.554 295.443 133.679 284.223 126.173 274.321C116.75 261.943 99.8602 254.757 81.094 255.116C65.6019 255.395 50.6688 260.107 34.0986 269.889C22.0004 276.876 10.6209 285.78 0 294.963V295.962C10.7007 286.659 22.2799 277.635 34.418 270.408Z" fill="#93a7d1"></path><path opacity="0.3" d="M30.7047 281.788C46.4763 271.167 60.6508 265.697 75.3842 264.539C89.5587 263.421 108.684 267.174 119.824 281.109C128.928 292.448 130.046 305.425 130.006 315.446C130.006 320.278 130.046 325.428 130.964 330.419C131.882 335.41 133.599 339.563 136.155 343.076C141.186 349.984 150.209 354.895 160.91 356.572C162.867 356.891 164.903 357.091 166.939 357.25C175.803 357.849 184.148 356.731 193.052 355.573C195.568 355.254 198.163 354.895 200.798 354.575C206.788 353.857 212.058 353.377 217.009 352.978C226.951 352.26 236.774 351.98 246.157 352.14C271.271 352.579 290.916 355.294 308.005 360.564C317.628 363.559 324.256 366.993 328.888 371.345C333.24 375.457 336.314 380.528 337.792 386.038C338.91 390.191 338.91 394.103 338.91 398.256V398.895C338.91 404.525 338.91 413.069 338.67 422.532C338.63 424.648 338.55 426.724 338.47 428.92H339.229C339.309 426.764 339.389 424.648 339.429 422.572C339.668 413.109 339.668 404.564 339.668 398.935V398.296C339.668 394.103 339.668 390.151 338.51 385.918C336.993 380.289 333.839 375.098 329.407 370.906C324.695 366.434 317.947 362.96 308.245 359.926C291.076 354.615 271.391 351.9 246.197 351.461C236.774 351.261 226.911 351.541 216.969 352.299C212.018 352.659 206.708 353.178 200.719 353.897C198.083 354.216 195.488 354.535 192.972 354.895C184.148 356.053 175.803 357.171 167.019 356.572C165.023 356.452 163.026 356.212 161.07 355.893C150.529 354.216 141.705 349.425 136.794 342.677C134.278 339.203 132.641 335.171 131.723 330.299C130.804 325.388 130.764 320.278 130.764 315.486C130.804 305.345 129.686 292.209 120.423 280.67C109.084 266.495 89.6785 262.662 75.3044 263.82C60.4511 264.978 46.1569 270.528 30.2655 281.189C19.5648 288.416 9.42303 297.08 0 305.984V307.022C9.54281 297.958 19.8443 289.174 30.7047 281.788Z" fill="#93a7d1"></path><path opacity="0.3" d="M27.0313 293.207C42.1241 281.668 55.6997 275.359 69.7544 273.363C83.7691 271.367 102.775 274.082 114.194 287.617C122.739 297.759 124.616 309.897 125.334 320.397C125.654 325.069 126.093 330.02 127.371 334.652C128.648 339.283 130.565 343.116 133.28 346.39C138.511 352.699 147.415 357.131 157.676 358.608C159.593 358.887 161.549 359.087 163.506 359.167C172.29 359.646 180.635 358.488 189.459 357.29C191.695 356.971 193.931 356.652 196.207 356.372C202.236 355.613 207.187 355.054 211.858 354.655C221.521 353.817 230.984 353.377 240.008 353.417C263.725 353.457 283.29 355.933 299.82 360.964C309.283 363.838 315.632 367.232 319.744 371.624C323.617 375.737 326.053 380.967 326.572 386.358C326.971 390.191 326.332 393.624 325.654 397.258C325.574 397.777 325.454 398.256 325.374 398.775C324.336 404.564 323.378 411.871 322.34 421.693L322.14 423.73C321.94 425.446 321.781 427.203 321.621 428.96H322.379C322.539 427.243 322.739 425.526 322.898 423.809L323.098 421.773C324.136 411.951 325.095 404.684 326.133 398.895C326.213 398.376 326.332 397.857 326.412 397.378C327.091 393.664 327.73 390.191 327.331 386.278C326.772 380.728 324.256 375.338 320.303 371.105C316.071 366.593 309.642 363.16 300.06 360.245C283.489 355.214 263.845 352.739 240.048 352.659C231.024 352.619 221.521 353.018 211.819 353.897C207.147 354.296 202.196 354.855 196.167 355.613C193.891 355.893 191.655 356.212 189.419 356.532C180.635 357.77 172.33 358.887 163.625 358.408C161.669 358.289 159.752 358.129 157.876 357.849C147.774 356.412 139.07 352.02 133.959 345.871C131.324 342.677 129.407 338.924 128.169 334.412C126.931 329.82 126.452 324.949 126.133 320.318C125.414 309.657 123.498 297.399 114.833 287.098C103.214 273.323 83.8889 270.568 69.7144 272.564C55.5 274.601 41.8446 280.949 26.632 292.568C16.9694 299.955 8.06547 308.299 0 316.604V317.682C8.18526 309.218 17.2489 300.713 27.0313 293.207Z" fill="#93a7d1"></path><path opacity="0.3" d="M23.318 304.586C37.8918 291.889 50.4691 284.981 64.0846 282.107C81.4134 278.473 98.862 283.145 108.525 294.045C116.87 303.388 119.145 315.087 120.623 325.308C121.222 329.461 122.06 334.332 123.777 338.844C125.374 343.116 127.53 346.629 130.445 349.664C135.875 355.373 144.62 359.326 154.482 360.604C156.318 360.844 158.195 361.003 160.112 361.083C168.896 361.482 177.201 360.245 186.025 358.967C187.862 358.687 189.738 358.408 191.615 358.168C195.728 357.609 201.158 356.851 206.668 356.292C216.051 355.334 225.194 354.775 233.819 354.655C256.538 354.335 275.424 356.491 291.595 361.283C297.424 363 305.769 365.994 310.601 371.824C315.272 377.493 315.592 383.482 315.392 386.557C315.152 390.19 313.915 393.344 312.597 396.658C312.357 397.297 312.118 397.936 311.838 398.575C309.642 404.364 307.646 411.831 305.929 420.775C305.41 423.41 304.931 426.165 304.492 428.92H305.25C305.689 426.205 306.169 423.49 306.648 420.894C308.365 411.991 310.321 404.564 312.517 398.815C312.757 398.176 312.996 397.537 313.276 396.898C314.593 393.504 315.871 390.35 316.111 386.557C316.35 383.363 315.991 377.134 311.16 371.265C306.209 365.275 297.744 362.241 291.794 360.484C275.544 355.653 256.578 353.497 233.779 353.816C225.115 353.936 215.971 354.455 206.548 355.453C200.998 356.012 195.568 356.771 191.455 357.33C189.579 357.609 187.702 357.849 185.865 358.128C177.081 359.406 168.776 360.644 160.072 360.245C158.195 360.165 156.318 360.005 154.522 359.765C144.859 358.528 136.275 354.615 130.964 349.025C128.169 346.07 126.013 342.597 124.456 338.444C122.779 333.972 121.94 329.181 121.341 325.069C119.824 314.727 117.548 302.909 109.084 293.406C99.2213 282.346 81.4932 277.555 63.9249 281.228C50.1497 284.103 37.4925 291.09 22.7989 303.867C15.2925 310.575 7.74605 318.161 0 326.905V328.063C7.90576 319.079 15.6518 311.294 23.318 304.586Z" fill="#93a7d1"></path><path opacity="0.3" d="M19.6047 315.965C28.9079 306.742 41.7249 295.562 58.4148 290.891C71.3515 287.257 90.7565 287.617 102.855 300.473C111.04 309.177 113.635 320.357 115.911 330.219C116.75 333.893 118.027 338.684 120.144 343.036C122.06 346.909 124.456 350.143 127.53 352.938C133.24 358.089 141.665 361.522 151.168 362.6C152.925 362.8 154.761 362.92 156.598 363C165.422 363.279 173.847 361.962 182.711 360.604C184.108 360.404 185.506 360.165 186.943 359.965C191.575 359.246 196.526 358.528 201.437 357.929C210.541 356.851 219.365 356.172 227.59 355.893C249.311 355.174 267.558 357.09 283.33 361.642C289.039 363.279 297.145 366.194 301.377 372.063C304.412 376.295 305.41 381.686 304.132 386.836C303.254 390.43 301.417 393.344 299.461 396.459C299.061 397.098 298.622 397.776 298.223 398.455C294.869 404.045 291.914 411.272 289.479 419.936C288.6 423.011 287.882 426.045 287.243 429H288.001C288.64 426.125 289.359 423.17 290.197 420.136C292.593 411.511 295.508 404.364 298.862 398.854C299.261 398.176 299.66 397.537 300.1 396.858C301.976 393.824 303.933 390.709 304.851 387.036C306.208 381.646 305.13 376.016 301.976 371.624C297.624 365.555 289.359 362.6 283.529 360.923C267.678 356.332 249.351 354.455 227.55 355.134C219.285 355.374 210.461 356.052 201.357 357.17C196.446 357.769 191.495 358.488 186.824 359.207C185.426 359.406 183.989 359.646 182.591 359.845C173.727 361.243 165.342 362.521 156.598 362.241C154.801 362.201 152.965 362.041 151.208 361.842C141.825 360.804 133.559 357.41 127.97 352.379C124.975 349.664 122.619 346.51 120.782 342.717C118.666 338.404 117.468 333.693 116.63 330.06C114.314 320.118 111.719 308.818 103.414 299.954C91.076 286.858 71.3515 286.459 58.2152 290.132C41.3655 294.844 28.4288 306.103 19.0856 315.406C12.6173 321.834 6.30864 328.862 0 336.648V337.845C6.46835 329.82 12.9766 322.553 19.6047 315.965Z" fill="#93a7d1"></path><path opacity="0.3" d="M15.8914 327.345C25.2346 316.804 36.9335 305.265 52.745 299.675C66.4004 294.844 85.4461 295.203 97.185 306.942C104.412 314.169 107.526 323.751 110.481 332.974L111.2 335.13C112.877 340.281 114.514 343.994 116.51 347.228C118.666 350.702 121.381 353.737 124.616 356.212C130.525 360.764 138.79 363.719 147.894 364.597C149.611 364.757 151.367 364.876 153.124 364.876C162.108 365.036 170.693 363.599 179.756 362.121L182.352 361.722C186.624 361.003 191.495 360.205 196.286 359.526C205.27 358.288 213.495 357.49 221.441 357.091C242.204 356.013 259.772 357.61 275.145 361.922C280.734 363.479 288.6 366.274 292.234 372.183C294.869 376.455 295.148 382.005 292.952 387.036C291.395 390.59 288.96 393.385 286.364 396.339C285.805 396.978 285.286 397.577 284.727 398.216C280.175 403.526 276.302 410.513 273.148 418.978C271.91 422.292 270.872 425.606 269.994 428.92H270.792C271.671 425.686 272.669 422.452 273.907 419.218C277.021 410.833 280.894 403.925 285.366 398.695C285.885 398.056 286.444 397.457 287.003 396.818C289.519 393.944 292.114 390.989 293.711 387.316C295.987 382.085 295.707 376.256 292.912 371.784C289.119 365.635 281.094 362.8 275.384 361.203C259.932 356.851 242.284 355.254 221.441 356.332C213.456 356.731 205.23 357.53 196.247 358.768C191.455 359.446 186.584 360.245 182.312 360.964L179.676 361.403C170.653 362.92 162.108 364.317 153.164 364.158C151.447 364.118 149.69 364.038 147.974 363.878C138.99 363.04 130.884 360.085 125.095 355.653C121.9 353.218 119.305 350.343 117.189 346.869C115.232 343.715 113.595 340.002 111.958 334.931L111.24 332.775C108.245 323.432 105.131 313.809 97.744 306.423C85.7655 294.444 66.4004 294.045 52.5054 298.956C36.4144 304.666 24.1964 316.844 15.3324 326.826C10.1018 332.735 4.99101 339.083 0 345.831V347.109C5.19065 340.081 10.5011 333.454 15.8914 327.345Z" fill="#93a7d1"></path><path opacity="0.3" d="M12.218 338.724C21.0022 327.425 32.0223 315.007 47.1151 308.459C60.4511 302.67 79.377 301.991 91.5551 313.41C97.9835 319.439 101.337 327.585 104.572 335.45C105.211 337.007 105.849 338.565 106.528 340.082C108.644 344.953 110.601 348.467 112.957 351.461C115.352 354.575 118.347 357.291 121.781 359.487C127.97 363.479 135.875 365.915 144.699 366.594C146.336 366.713 148.053 366.793 149.73 366.793C149.81 366.793 149.89 366.793 150.01 366.793C159.273 366.793 168.137 365.196 177.52 363.519L179.397 363.16C181.473 362.8 183.589 362.401 185.745 362.042C182.551 362.601 179.277 363.28 176.123 363.879C166.38 365.795 156.318 367.831 146.297 367.951C137.393 368.071 120.862 366.554 109.922 355.134C105.29 350.303 102.176 344.114 99.1814 338.165C95.7875 331.378 92.2339 324.35 86.4044 319.24C73.5475 307.94 53.9029 309.937 41.1259 316.525C26.5522 324.031 16.1309 337.487 7.86583 349.624C5.15072 353.657 2.5554 357.73 0 361.842V363.28C2.71511 358.808 5.55 354.416 8.50468 350.104C16.7299 338.006 27.0313 324.67 41.4853 317.243C54.0626 310.775 73.308 308.819 85.9253 319.879C91.635 324.909 95.1486 331.857 98.5026 338.565C101.537 344.554 104.652 350.782 109.363 355.693C120.503 367.312 137.313 368.869 146.297 368.75C156.438 368.63 166.5 366.634 176.283 364.677C179.437 364.038 182.751 363.399 185.985 362.8C204.751 359.447 232.701 355.773 258.774 362.641C264.084 364.038 271.471 366.594 273.987 372.623C276.223 377.973 273.747 383.842 270.673 387.595C267.678 391.229 263.685 393.944 259.772 396.579C259.093 397.058 258.415 397.497 257.736 397.977C247.634 404.964 239.728 416.223 235.097 428.96H235.895C240.487 416.463 248.273 405.443 258.175 398.575C258.854 398.096 259.533 397.657 260.171 397.178C264.124 394.503 268.157 391.748 271.232 388.035C274.466 384.122 277.021 377.933 274.665 372.303C271.99 365.955 264.404 363.32 258.934 361.882C244.28 358.049 229.067 357.49 215.172 358.329C215.212 358.329 215.252 358.329 215.292 358.329C235.137 356.931 252.026 358.209 266.959 362.281C272.429 363.759 280.056 366.434 283.13 372.423C285.805 377.614 284.208 383.523 281.852 387.316C279.616 390.909 276.342 393.744 273.148 396.459C272.509 397.018 271.91 397.537 271.271 398.096C265.562 403.167 260.73 409.875 256.817 418.1C255.141 421.614 253.743 425.247 252.585 428.96H253.384C254.502 425.367 255.899 421.853 257.496 418.459C261.329 410.314 266.121 403.686 271.751 398.695C272.349 398.136 272.988 397.617 273.627 397.058C276.821 394.303 280.135 391.428 282.451 387.715C284.927 383.722 286.604 377.534 283.769 372.064C280.535 365.835 272.749 363.08 267.119 361.563C252.106 357.45 235.097 356.173 215.172 357.61C207.626 358.129 199.68 359.087 190.976 360.445C187.063 361.044 183.07 361.802 179.237 362.481L177.361 362.84C167.938 364.517 158.994 366.154 149.73 366.114C148.053 366.114 146.376 366.035 144.739 365.915C136.035 365.236 128.249 362.84 122.18 358.928C118.826 356.771 115.911 354.096 113.555 351.062C111.28 348.107 109.323 344.673 107.247 339.842C106.568 338.325 105.929 336.768 105.29 335.211C102.016 327.265 98.6224 319.04 92.0742 312.891C79.6565 301.232 60.3713 301.951 46.8356 307.82C31.5831 314.408 20.4831 326.946 11.6191 338.325C7.62627 343.476 3.75324 348.826 0 354.336V355.693C3.91295 349.784 7.98562 344.154 12.218 338.724Z" fill="#93a7d1"></path><path opacity="0.3" d="M1170 254.794C1157.63 251.163 1144.98 248.341 1132.02 248.005C1120.62 247.719 1109.43 249.718 1100.54 253.648C1089.63 258.462 1082.13 265.911 1078.25 275.776C1077.16 278.547 1076.45 281.748 1075.76 284.838C1074.5 290.511 1073.2 296.378 1069.51 300.183C1065.43 304.375 1059.45 307.215 1051.22 308.871C1037.22 311.686 1022.56 310.715 1008.38 309.774C1005.72 309.6 1003.08 309.426 1000.44 309.276L999.747 309.239C988.472 308.591 976.815 307.919 970.768 319.907C967.698 325.992 967.174 331.685 969.208 336.823C974.269 349.609 994.076 356.646 1007.18 361.311C1009.15 362.015 1011.02 362.675 1012.64 363.292C1028.11 369.152 1042.22 379.011 1053.45 391.81C1063.32 403.064 1069.97 415.37 1073.49 428.972H1074.13C1070.6 415.215 1063.9 402.771 1053.92 391.393C1042.62 378.519 1028.42 368.604 1012.86 362.706C1011.23 362.09 1009.36 361.423 1007.39 360.72C994.384 356.098 974.738 349.111 969.781 336.592C967.815 331.629 968.333 326.111 971.323 320.188C977.185 308.56 988.645 309.22 999.723 309.862L1000.42 309.899C1003.05 310.049 1005.69 310.223 1008.35 310.397C1022.56 311.338 1037.26 312.316 1051.35 309.482C1059.7 307.806 1065.79 304.904 1069.95 300.619C1073.77 296.689 1075.09 290.735 1076.37 284.975C1077.04 281.904 1077.75 278.734 1078.82 276.006C1089.2 249.606 1122.15 248.379 1132.01 248.628C1144.95 248.958 1157.62 251.798 1170 255.441V254.794Z" fill="#93a7d1"></path><path opacity="0.3" d="M0.000107407 174.187C12.3724 177.818 25.022 180.639 37.9799 180.975C49.3843 181.262 60.5668 179.263 69.4623 175.333C80.3735 170.519 87.8696 163.07 91.7533 153.205C92.8444 150.433 93.5533 147.232 94.2376 144.143C95.4952 138.469 96.7959 132.602 100.495 128.797C104.569 124.606 110.549 121.766 118.779 120.109C132.785 117.294 147.444 118.266 161.622 119.206C164.279 119.38 166.924 119.555 169.556 119.704L170.253 119.742C181.528 120.389 193.185 121.062 199.232 109.073C202.302 102.988 202.826 97.2958 200.792 92.1577C195.731 79.3716 175.924 72.334 162.824 67.6692C160.852 66.9654 158.984 66.3053 157.363 65.6887C141.89 59.8281 127.779 49.9692 116.553 37.1706C106.678 25.9166 100.026 13.61 96.5123 0.00806268L95.8712 0.00806262C99.3973 13.7657 106.104 26.2093 116.085 37.5879C127.378 50.4612 141.575 60.3762 157.141 66.2741C158.774 66.8907 160.636 67.5571 162.615 68.2608C175.616 72.882 195.262 79.8699 200.219 92.3882C202.185 97.3519 201.667 102.87 198.677 108.793C192.815 120.42 181.355 119.76 170.277 119.119L169.581 119.081C166.955 118.932 164.31 118.758 161.653 118.583C147.438 117.643 132.741 116.665 118.649 119.499C110.296 121.174 104.212 124.076 100.051 128.361C96.2287 132.291 94.9095 138.245 93.6335 144.006C92.9554 147.076 92.2526 150.246 91.18 152.974C80.7989 179.375 47.8494 180.602 37.9922 180.353C25.0467 180.023 12.3847 177.183 0.000107464 173.539L0.000107407 174.187Z" fill="#93a7d1"></path><path opacity="0.3" d="M1170 361.417C1159.99 347.354 1149.08 333.715 1137.59 320.867L1136.8 319.988C1130.75 313.243 1124.5 306.268 1122.13 297.574C1119.71 288.662 1123.06 277.152 1131.9 274.225C1135.02 273.191 1138.41 273.347 1141.61 273.671C1151.46 274.661 1161 277.246 1169.99 281.35V280.665C1161.01 276.598 1151.49 274.038 1141.67 273.048C1138.41 272.718 1134.94 272.562 1131.71 273.633C1122.53 276.673 1119.04 288.549 1121.53 297.736C1123.94 306.573 1130.24 313.605 1136.34 320.406L1137.12 321.284C1148.63 334.138 1159.54 347.796 1169.57 361.872C1169.71 362.071 1169.86 362.277 1170 362.482V361.417Z" fill="#93a7d1"></path><path opacity="0.3" d="M0.000114559 67.5633C10.0113 81.6262 20.9164 95.2655 32.4133 108.114L33.2024 108.992C39.2498 115.737 45.5007 122.712 47.8678 131.407C50.2905 140.319 46.9432 151.828 38.1032 154.755C34.9778 155.789 31.5873 155.634 28.3879 155.31C18.5369 154.32 9.00034 151.735 0.00626067 147.631L0.00626061 148.316C8.99418 152.383 18.5061 154.942 28.3262 155.933C31.5934 156.263 35.0579 156.418 38.2943 155.347C47.4733 152.308 50.9624 140.431 48.4658 131.245C46.0616 122.407 39.7553 115.376 33.6647 108.575L32.8757 107.697C21.3664 94.842 10.4552 81.184 0.431622 67.1087C0.289837 66.9094 0.141899 66.7038 0.000114652 66.4983L0.000114559 67.5633Z" fill="#93a7d1"></path>
<path d="M1154 73.7481C1144.22 79.8703 1130.16 81.0306 1121.88 73.0153C1116.53 67.8474 1114.7 60.1909 1111.77 53.3741C1100.89 28.0306 1073.4 13.1679 1046.1 8.64886C1018.8 4.12977 990.917 8.00001 963.295 9.60306C945.506 10.6336 927.672 10.7099 909.875 9.83207C896.823 9.19085 883.158 7.82443 872.297 0.57252C872.029 0.389313 871.769 0.19084 871.508 0H756C760.399 42.2138 780.05 79.7634 827.737 81.7634C853.558 82.8474 878.59 74.0001 903.384 66.7481C948.856 53.4504 1014.53 49.855 1040.59 99.0382C1045.67 108.634 1048.75 120.015 1057.49 126.496C1061.14 129.206 1065.49 130.794 1069.86 132.069C1104.37 142.107 1143.85 132.412 1170 107.924V55.4962C1166.38 62.9084 1161.01 69.3588 1154 73.7481Z" fill="transparent"></path><path opacity="0.2" d="M1169.97 172.843C1149.67 164.448 1126.71 159.941 1103.36 159.941H1103.35C1088.25 159.941 1073.32 161.828 1059.17 165.426C1078.84 159.529 1099.96 156.725 1121.1 157.359C1138.8 157.833 1155.36 160.629 1169.98 165.541V164.739C1155.35 159.85 1138.8 157.069 1121.13 156.596C1103.78 156.068 1086.45 157.856 1069.91 161.759C1087.72 156.825 1106.55 153.93 1124.86 153.479C1141.66 153.059 1156.92 154.48 1169.98 157.604V156.825C1156.89 153.716 1141.63 152.303 1124.84 152.723C1108.24 153.135 1091.21 155.541 1074.9 159.659C1092.47 154.579 1110.9 151.088 1128.62 149.598C1144.42 148.277 1158.39 148.369 1169.98 149.82V149.048C1158.35 147.605 1144.36 147.513 1128.56 148.835C1113.43 150.103 1097.78 152.837 1082.6 156.756C1099.11 151.944 1116.17 148.132 1132.39 145.703C1147.33 143.464 1159.9 142.311 1169.99 142.219V141.455C1159.86 141.547 1147.25 142.708 1132.28 144.946C1119.02 146.932 1105.19 149.843 1091.56 153.471C1106.64 149.003 1121.89 145 1136.16 141.814C1147.62 139.255 1159.83 136.635 1169.99 134.94V134.168C1159.78 135.871 1147.51 138.499 1135.99 141.074C1124.92 143.548 1113.26 146.512 1101.56 149.797C1114.75 145.695 1127.93 141.608 1139.93 137.926C1151.06 134.512 1161.56 131.013 1169.99 128.042V127.232C1161.52 130.226 1150.94 133.748 1139.7 137.201C1131.19 139.813 1122.07 142.632 1112.78 145.512C1123.28 141.914 1133.73 138.041 1143.7 134.031C1153.84 129.959 1162.92 125.651 1170 121.648V120.777C1162.92 124.818 1153.71 129.188 1143.42 133.328C1137.5 135.703 1131.4 138.041 1125.23 140.294C1132.88 137.178 1140.36 133.771 1147.47 130.135C1156.45 125.544 1164.13 120.678 1170 115.95V114.972C1164.11 119.777 1156.31 124.757 1147.12 129.455C1144.08 131.013 1140.96 132.526 1137.79 133.992C1137.94 133.908 1138.1 133.824 1138.25 133.74C1142.72 131.403 1147.07 128.897 1151.24 126.231C1158.84 121.381 1165.18 116.27 1170 111.183V110.068C1165.15 115.3 1158.68 120.571 1150.83 125.582C1150.44 125.826 1150.05 126.056 1149.67 126.3C1151.48 125.017 1153.26 123.695 1155.01 122.32C1161.06 117.554 1166.09 112.535 1170 107.455V106.164C1167.53 109.487 1164.57 112.795 1161.14 116.034C1164.57 112.459 1167.53 108.769 1170 105.018V103.636C1166.9 108.509 1162.96 113.299 1158.24 117.867C1154.96 121.045 1151.49 123.963 1147.87 126.629C1140.71 131.54 1133.03 135.726 1125.09 139.087C1115.11 142.899 1104.66 144.931 1094.31 144.931C1094.19 144.931 1094.07 144.931 1093.96 144.931C1068.45 144.817 1044.34 130.799 1036.63 111.603C1033.4 103.575 1032.82 94.8435 1032.27 86.4026C1032.1 83.8436 1031.92 81.2006 1031.68 78.6187C1030.81 69.4674 1028.51 56.3058 1018.61 47.6128C1013.49 43.1136 1006.5 39.8594 996.635 37.3539C984.368 34.2449 971.702 33.1144 958.974 33.9852C951.403 34.5046 943.794 35.7498 936.43 36.9567C925.908 38.6831 915.025 40.4629 904.187 40.1115C896.202 39.8518 889.999 38.3775 885.218 35.6046C879.254 32.1442 875.818 26.4763 876.456 21.1596C877.109 15.759 881.544 11.4736 885.833 7.33342C886.871 6.33274 887.939 5.3015 888.931 4.27026C890.168 2.98694 891.306 1.55085 892.259 0.0383677H891.352C890.483 1.35224 889.469 2.605 888.377 3.74319C887.393 4.75915 886.325 5.79038 885.295 6.78343C880.906 11.0153 876.372 15.4 875.687 21.068C875.011 26.6901 878.593 32.656 884.819 36.2616C889.707 39.0955 896.032 40.608 904.149 40.8677C915.055 41.2268 925.977 39.4317 936.538 37.7053C943.886 36.4984 951.48 35.2532 959.012 34.7414C971.656 33.8782 984.245 35.0011 996.428 38.0872C1006.17 40.5546 1013.05 43.7629 1018.08 48.1781C1027.77 56.6877 1030.03 69.666 1030.88 78.6874C1031.13 81.2617 1031.3 83.8971 1031.47 86.4485C1032.03 94.9504 1032.61 103.735 1035.88 111.878C1043.7 131.357 1068.12 145.573 1093.93 145.687C1094.05 145.687 1094.16 145.687 1094.28 145.687C1100.31 145.687 1106.36 145 1112.35 143.686C1103.88 146.253 1095.28 147.864 1086.85 148.407C1076.42 149.071 1066.87 147.933 1058.44 145.023C1052.94 143.121 1047.69 140.348 1043.25 136.994C1036 131.517 1030.63 124.306 1027.73 116.14C1024.97 108.334 1024.47 99.9462 1023.98 91.8262C1023.87 89.9929 1023.77 88.1672 1023.63 86.3415C1023.52 84.9054 1023.41 83.6068 1023.28 82.3541C1022.15 71.3618 1019.26 63.005 1014.44 56.8099C1012.86 54.7704 1011.05 52.9294 1009.04 51.3253C1004.46 47.6739 998.357 44.8934 990.387 42.8233C989.088 42.4872 987.72 42.1663 986.313 41.8761C974.607 39.424 961.71 38.8205 947.983 40.081C942.948 40.5469 937.86 41.2497 932.933 41.9372C929.844 42.365 926.654 42.808 923.51 43.1823C914.264 44.2899 903.365 45.2448 892.651 43.9615C885.21 43.0754 879.031 41.0587 874.266 37.9574C868.632 34.2831 865.419 28.8366 865.895 23.7416C866.387 18.4632 870.369 14.1931 874.219 10.0605C875.134 9.07507 876.087 8.05911 876.963 7.05078C878.793 4.95011 880.345 2.53625 881.344 0.0536453H880.514C879.546 2.35292 878.093 4.59109 876.379 6.55426C875.503 7.55495 874.565 8.57091 873.651 9.54867C869.715 13.7729 865.642 18.1423 865.127 23.6805C864.627 29.0582 867.963 34.7796 873.835 38.6067C878.693 41.7691 884.988 43.8316 892.551 44.733C903.35 46.0316 914.302 45.0691 923.595 43.9538C926.746 43.5719 929.943 43.1288 933.033 42.7011C937.945 42.0212 943.025 41.3184 948.044 40.8525C961.695 39.5997 974.515 40.1955 986.144 42.6323C987.535 42.9226 988.896 43.2434 990.179 43.5719C998.042 45.6191 1004.04 48.3538 1008.54 51.9364C1010.49 53.4947 1012.27 55.2974 1013.81 57.2912C1018.54 63.3793 1021.38 71.6063 1022.49 82.4534C1022.62 83.6985 1022.73 84.9971 1022.84 86.4179C1022.97 88.2436 1023.08 90.0693 1023.19 91.8949C1023.68 100.061 1024.18 108.509 1026.99 116.415C1029.94 124.726 1035.39 132.06 1042.77 137.621C1047.27 141.02 1052.6 143.831 1058.17 145.756C1065.12 148.162 1072.83 149.369 1081.15 149.369C1083.03 149.369 1084.95 149.308 1086.89 149.186C1092.73 148.812 1098.64 147.926 1104.55 146.573C1096.22 149.041 1087.86 150.859 1079.76 151.905C1067.99 153.425 1058.62 153.028 1050.28 150.645C1044.47 148.995 1038.95 146.268 1034.3 142.769C1026.97 137.262 1021.63 129.631 1018.85 120.701C1016.49 113.138 1016.08 105.087 1015.67 97.2956C1015.55 94.9657 1015.43 92.5519 1015.26 90.1838C1015.15 88.7401 1015.04 87.4033 1014.89 86.1047C1013.67 74.9597 1010.5 66.5341 1005.21 60.3543C1003.53 58.3759 1001.6 56.5884 999.479 55.053C994.699 51.6003 988.388 49.0336 980.18 47.208C978.85 46.91 977.443 46.6427 975.998 46.3982C964.669 44.4962 952.279 44.4274 936.999 46.1767C933.932 46.5281 930.82 46.9482 927.814 47.3531C922.649 48.0482 917.308 48.7586 912.027 49.1788C899.845 50.126 890.022 49.6982 881.114 47.8114C874.127 46.3524 868.14 43.824 863.313 40.3025C858.002 36.4296 855.02 31.197 855.335 26.3082C855.665 21.152 859.193 16.8819 862.606 12.757C863.405 11.7945 864.228 10.7938 864.996 9.80839C867.21 6.96676 869.07 3.48347 869.723 0.0460065H868.901C868.24 3.36888 866.433 6.72232 864.389 9.34242C863.628 10.3202 862.806 11.3132 862.014 12.2757C858.524 16.4923 854.92 20.8541 854.574 26.2624C854.243 31.4109 857.341 36.8879 862.859 40.9212C867.771 44.5038 873.858 47.0781 880.952 48.56C889.937 50.4621 899.829 50.8975 912.089 49.9426C917.384 49.5225 922.742 48.8045 927.914 48.1093C930.92 47.7045 934.025 47.292 937.084 46.9406C952.287 45.1989 964.608 45.2677 975.86 47.1545C977.29 47.3913 978.681 47.6663 979.995 47.9566C988.096 49.7593 994.314 52.2878 999.01 55.6717C1001.08 57.1689 1002.96 58.9106 1004.61 60.8508C1009.79 66.9161 1012.91 75.2041 1014.11 86.1887C1014.25 87.4797 1014.37 88.8012 1014.48 90.2373C1014.66 92.5977 1014.78 95.0039 1014.9 97.3337C1015.3 105.171 1015.72 113.276 1018.1 120.922C1020.93 130.005 1026.37 137.766 1033.82 143.373C1038.55 146.925 1044.16 149.698 1050.05 151.371C1055.18 152.837 1060.68 153.555 1066.88 153.555C1070.88 153.555 1075.18 153.25 1079.84 152.646C1085.39 151.928 1091.06 150.844 1096.76 149.446C1088.57 151.867 1080.46 153.876 1072.67 155.373C1062.94 157.237 1052.49 158.635 1042.11 156.244C1036.01 154.839 1030.22 152.165 1025.35 148.514C1017.91 142.937 1012.59 134.886 1009.97 125.231C1007.99 117.928 1007.66 110.205 1007.36 102.734C1007.24 99.8698 1007.12 96.9136 1006.9 94.0032C1006.8 92.5595 1006.67 91.154 1006.51 89.8401C1005.21 78.6798 1001.67 69.9487 995.997 63.8834C994.214 61.9585 992.17 60.2397 989.933 58.7655C984.891 55.4579 978.55 53.1739 969.988 51.5773C968.612 51.3253 967.175 51.1037 965.707 50.9128C952.202 49.1864 938.659 50.5385 926.047 52.2648C924.563 52.4711 923.087 52.6773 921.604 52.8912C914.733 53.869 907.623 54.8773 900.575 55.1599C888.9 55.6106 878.777 54.4648 869.608 51.6461C863.082 49.6676 857.287 46.635 852.391 42.6399C847.41 38.5761 844.651 33.5574 844.805 28.8748C844.974 23.8256 848.056 19.5555 851.031 15.4305C851.715 14.4757 852.406 13.5285 853.052 12.566C854.351 10.6716 857.602 5.34733 857.379 0.0383677H856.611C856.841 5.11817 853.667 10.2973 852.414 12.1382C851.768 13.0931 851.084 14.0326 850.4 14.9875C847.357 19.2041 844.213 23.5735 844.029 28.8519C843.859 33.7789 846.726 39.0192 851.891 43.2358C856.872 47.2996 862.752 50.3781 869.369 52.3871C878.616 55.2287 888.831 56.3821 900.59 55.9315C907.685 55.6488 914.81 54.6329 921.696 53.6551C923.172 53.4412 924.655 53.235 926.131 53.0287C938.698 51.31 952.172 49.9579 965.591 51.6766C967.044 51.86 968.474 52.0815 969.826 52.3336C978.289 53.9148 984.538 56.1606 989.487 59.4071C991.678 60.8432 993.669 62.5314 995.413 64.4029C1000.97 70.3459 1004.44 78.9319 1005.73 89.9241C1005.88 91.2303 1006.01 92.6206 1006.12 94.0567C1006.34 96.9518 1006.46 99.908 1006.57 102.765C1006.88 110.274 1007.2 118.043 1009.21 125.429C1011.88 135.253 1017.3 143.442 1024.87 149.125C1029.82 152.837 1035.72 155.557 1041.93 156.985C1045.93 157.909 1049.92 158.276 1053.87 158.276C1060.35 158.276 1066.71 157.291 1072.8 156.122C1077.58 155.205 1082.47 154.098 1087.42 152.822C1079.92 155.06 1072.58 157.092 1065.59 158.857C1054.56 161.637 1044.56 163.776 1033.96 161.851C1027.65 160.705 1021.41 158.016 1016.4 154.273C1006.81 147.108 1002.78 136.994 1001.09 129.776C999.433 122.725 999.21 115.323 998.995 108.166C998.895 104.782 998.788 101.275 998.534 97.8303C998.426 96.3636 998.288 94.9275 998.119 93.5755C996.712 82.2318 992.9 73.4319 986.767 67.4202C984.883 65.5563 982.731 63.8911 980.364 62.4855C975.13 59.3689 968.581 57.2988 959.773 55.9544C958.359 55.7405 956.883 55.5648 955.384 55.4349C942.564 54.2662 930.082 55.9849 915.102 58.353L914.617 58.4293C906.309 59.7509 897.708 61.1182 889.13 61.1411C889.092 61.1411 889.054 61.1411 889.007 61.1411C877.563 61.1411 867.456 59.2925 858.109 55.4884C852.045 53.044 846.45 49.5072 841.477 44.9698C838.787 42.5177 834.275 37.499 834.283 31.4262C834.29 26.4457 836.942 22.1374 839.509 17.9743C840.055 17.0882 840.601 16.1944 841.123 15.3007C842.791 12.4514 846.065 5.79038 844.305 0.0154513H843.498C845.335 5.55358 842.092 12.1229 840.462 14.9187C839.94 15.8048 839.402 16.6909 838.856 17.577C836.235 21.8319 833.529 26.2242 833.522 31.4262C833.506 37.7893 838.179 42.9913 840.962 45.5351C846.004 50.1336 851.684 53.7162 857.825 56.1988C867.264 60.0411 877.463 61.905 889.007 61.905C889.046 61.905 889.092 61.905 889.13 61.905C897.77 61.8821 906.393 60.5071 914.733 59.1856L915.217 59.1092C930.143 56.7488 942.572 55.0377 955.354 56.1912C956.837 56.321 958.297 56.4967 959.696 56.7106C968.404 58.0398 974.861 60.0793 980.01 63.1425C982.316 64.5175 984.422 66.1445 986.267 67.9626C992.27 73.8521 996.013 82.5068 997.396 93.6748C997.565 95.0116 997.704 96.4324 997.811 97.8914C998.065 101.321 998.165 104.812 998.273 108.196C998.488 115.392 998.711 122.832 1000.38 129.951C1002.1 137.292 1006.2 147.582 1015.98 154.892C1021.08 158.704 1027.43 161.446 1033.86 162.615C1036.73 163.134 1039.56 163.364 1042.38 163.364C1050.08 163.364 1057.66 161.66 1065.81 159.605C1069.36 158.711 1073 157.741 1076.71 156.718C1070.57 158.627 1064.49 160.514 1058.55 162.348L1058.05 162.508C1047.72 165.701 1037.05 169.009 1025.86 167.473C1019.25 166.564 1012.73 163.929 1007.51 160.041C997.696 152.723 993.799 142.013 992.262 134.321C990.902 127.522 990.779 120.426 990.663 113.559C990.594 109.663 990.525 105.629 990.233 101.665C990.125 100.168 989.979 98.7087 989.795 97.3261C988.296 85.7915 984.192 76.9229 977.605 70.9646C975.614 69.1542 973.354 67.5501 970.872 66.2133C965.438 63.2876 958.697 61.4238 949.635 60.339C948.19 60.171 946.676 60.0411 945.146 59.9571C932.703 59.2925 920.082 61.5765 907.877 63.7841C906.632 64.0057 905.394 64.2348 904.149 64.4564C895.333 66.0452 886.671 67.4431 877.678 67.1452C866.241 66.748 856.08 64.2043 846.611 59.3613C840.993 56.512 835.597 52.4711 830.563 47.3378C827.557 44.2747 823.937 39.4775 823.76 34.0157C823.599 29.104 825.813 24.7575 827.949 20.5485C828.364 19.7236 828.787 18.9062 829.187 18.0736C831.124 14.0938 833.921 6.54662 830.885 0.771692C830.755 0.519612 830.601 0.27517 830.455 0.0307289H829.548C829.786 0.389752 830.009 0.748776 830.201 1.12308C833.084 6.6001 830.37 13.8875 828.495 17.7375C828.095 18.5625 827.68 19.3798 827.258 20.1972C825.075 24.4825 822.815 28.9207 822.984 34.031C823.169 39.7372 826.904 44.7024 830.001 47.8573C835.097 53.044 840.562 57.1384 846.25 60.0259C855.827 64.9223 866.095 67.4966 877.64 67.8938C886.709 68.1994 895.771 66.7251 904.272 65.1973C905.517 64.9758 906.755 64.7466 908 64.5251C920.159 62.3251 932.741 60.0488 945.093 60.7057C946.607 60.7897 948.106 60.912 949.535 61.08C958.489 62.1494 965.153 63.9904 970.495 66.8702C972.916 68.1841 975.13 69.7424 977.074 71.5146C983.523 77.3507 987.543 86.0589 989.019 97.4101C989.195 98.7851 989.341 100.229 989.449 101.711C989.741 105.652 989.81 109.678 989.872 113.566C989.987 120.464 990.11 127.591 991.486 134.466C993.054 142.288 997.02 153.181 1007.03 160.644C1012.35 164.609 1018.99 167.305 1025.73 168.222C1027.72 168.497 1029.69 168.619 1031.63 168.619C1040.84 168.619 1049.66 165.884 1058.25 163.226L1058.75 163.066C1060.13 162.638 1061.54 162.202 1062.93 161.775C1059.03 163.111 1055.2 164.456 1051.45 165.823L1049.17 166.663C1039.15 170.345 1028.8 174.15 1017.68 173.08C1010.76 172.415 1003.97 169.826 998.542 165.793C988.465 158.299 984.722 147.009 983.354 138.858C982.255 132.297 982.232 125.483 982.209 118.89C982.193 114.498 982.178 109.961 981.847 105.492C981.732 103.972 981.578 102.482 981.386 101.061C979.811 89.4963 975.299 80.3069 968.358 74.5014C966.268 72.7445 963.893 71.2014 961.295 69.9334C955.669 67.191 948.72 65.5334 939.413 64.7161C937.929 64.5862 936.384 64.5098 934.816 64.4793C923.287 64.2578 911.727 66.6869 900.521 69.0396C898.069 69.5514 895.61 70.0709 893.158 70.5521C884.611 72.2632 875.426 73.7604 866.187 73.134C854.735 72.3472 844.551 69.1084 835.067 63.2112C829.779 59.9495 824.721 55.5266 819.602 49.6829C815.636 45.1531 813.484 40.7455 813.2 36.5824C812.862 31.7012 814.637 27.286 816.359 23.0082C816.651 22.2826 816.943 21.5569 817.227 20.8312C819.933 13.857 820.371 8.17369 818.534 3.93416C817.95 2.58973 817.181 1.3446 816.128 0.0383677H815.137C815.237 0.15295 815.336 0.267532 815.429 0.389752C816.489 1.69599 817.25 2.9182 817.827 4.23971C819.579 8.28827 819.141 13.7806 816.512 20.5562C816.228 21.2819 815.944 22.0076 815.652 22.7256C813.899 27.0797 812.093 31.579 812.439 36.6359C812.739 40.967 814.952 45.5274 819.033 50.1871C824.206 56.0919 829.317 60.5606 834.675 63.8605C844.267 69.8188 854.566 73.1035 866.149 73.8979C875.48 74.5243 884.726 73.0195 893.327 71.3007C895.787 70.8118 898.246 70.3 900.698 69.7806C911.858 67.4431 923.395 65.0216 934.824 65.2432C936.377 65.2737 937.899 65.3501 939.367 65.4723C948.574 66.282 955.438 67.9167 960.98 70.6132C963.524 71.8584 965.845 73.3632 967.89 75.0819C974.692 80.7652 979.104 89.7866 980.656 101.161C980.848 102.566 981.002 104.041 981.11 105.545C981.44 109.991 981.455 114.513 981.471 118.898C981.494 125.521 981.517 132.365 982.631 138.988C984.023 147.276 987.835 158.765 998.111 166.411C1003.65 170.529 1010.58 173.172 1017.63 173.852C1018.96 173.981 1020.28 174.043 1021.58 174.043C1030.27 174.043 1038.47 171.384 1046.43 168.504C1045.76 168.779 1045.08 169.047 1044.41 169.329C1043.24 169.826 1042.06 170.322 1040.88 170.827C1031 175.028 1020.79 179.374 1009.57 178.718C1002.35 178.29 995.275 175.754 989.641 171.568C979.288 163.883 975.699 152.02 974.523 143.419C973.654 137.078 973.723 130.524 973.792 124.192C973.846 119.326 973.9 114.292 973.539 109.342C973.424 107.807 973.262 106.286 973.055 104.827C971.886 96.6233 968.527 85.3179 959.189 78.0687C956.998 76.3576 954.516 74.8833 951.795 73.6764C945.984 71.1174 938.821 69.666 929.267 69.1084C927.745 69.0244 926.162 68.9938 924.571 69.0167C913.68 69.1771 902.789 71.7972 892.259 74.3257C888.977 75.1125 885.587 75.9298 882.244 76.6632C874.15 78.4354 864.558 80.1159 854.766 79.1458C843.221 77.9847 833.022 74.0354 823.584 67.0841C818.565 63.4098 813.838 58.6356 808.703 52.0433C805.137 47.4677 803.116 43.1365 802.693 39.1567C802.163 34.2602 803.446 29.9137 804.799 25.3152C804.968 24.7422 805.137 24.1693 805.306 23.5888C806.59 19.1277 808.081 12.5736 806.221 7.1119C805.76 5.75983 805.145 4.44595 804.284 2.96403C803.73 2.01682 803.1 1.05433 802.378 0.0307289H801.432C802.285 1.2071 803 2.28417 803.607 3.33069C804.438 4.75915 805.037 6.03482 805.483 7.34106C807.274 12.6042 805.813 19.0055 804.553 23.3673C804.384 23.9402 804.215 24.5131 804.053 25.086C802.739 29.5547 801.371 34.1762 801.917 39.2254C802.362 43.3962 804.384 47.7427 808.088 52.494C813.261 59.1398 818.042 63.9598 823.115 67.6799C832.669 74.7153 842.991 78.7027 854.674 79.8867C864.573 80.8721 874.242 79.1763 882.39 77.3888C885.741 76.6555 889.138 75.8382 892.42 75.0514C902.912 72.5306 913.764 69.9181 924.571 69.7577C926.147 69.7348 927.707 69.7653 929.213 69.8493C938.675 70.3993 945.746 71.8278 951.472 74.3486C954.131 75.525 956.568 76.9687 958.705 78.6416C967.843 85.7381 971.133 96.8449 972.286 104.911C972.493 106.355 972.655 107.86 972.762 109.38C973.124 114.3 973.07 119.318 973.016 124.169C972.947 130.532 972.87 137.117 973.754 143.51C974.953 152.257 978.612 164.334 989.18 172.171C994.929 176.441 1002.15 179.031 1009.52 179.466C1010.32 179.512 1011.09 179.535 1011.88 179.535C1017.71 179.535 1023.26 178.267 1028.64 176.464C1026.31 177.587 1024.04 178.763 1021.79 180.001C1015.34 182.613 1008.64 184.508 1001.43 184.317C994.022 184.133 986.467 181.574 980.71 177.312C970.049 169.421 966.637 156.985 965.653 147.941C964.984 141.807 965.146 135.49 965.307 129.386C965.445 124.07 965.591 118.57 965.192 113.154C965.076 111.603 964.907 110.052 964.684 108.548C963.447 100.191 959.888 88.7325 949.981 81.5826C947.691 79.9249 945.093 78.5117 942.257 77.3736C934.363 74.2417 925.255 73.6458 919.083 73.4625C917.53 73.4167 915.916 73.4396 914.279 73.516C903.811 74.0049 893.404 76.8465 883.343 79.5888C879.392 80.6659 875.311 81.7812 871.283 82.736C863.19 84.661 853.536 86.4485 843.298 85.1117C831.623 83.5763 821.408 78.9319 812.062 70.9188C807.289 66.8473 802.747 61.5842 797.774 54.3731C794.569 49.7211 792.732 45.5809 792.155 41.708C791.402 36.6817 792.271 32.0984 793.177 27.2478L793.354 26.3158C794.361 20.9381 795.122 15.2701 793.877 10.2591C793.462 8.58618 792.924 7.10426 792.509 6.00427C792.063 4.8279 791.54 3.61333 790.91 2.27654C790.549 1.51266 790.188 0.771692 789.819 0.0307289H788.966C789.388 0.870997 789.811 1.72654 790.218 2.59737C790.833 3.91124 791.348 5.11053 791.794 6.27163C792.209 7.35634 792.732 8.80771 793.139 10.4424C794.346 15.316 793.593 20.8846 792.601 26.1783L792.424 27.1103C791.54 31.8081 790.626 36.6664 791.394 41.8226C791.986 45.8101 793.869 50.0572 797.143 54.8086C802.139 62.0807 806.728 67.382 811.555 71.4993C821.016 79.6117 831.362 84.3096 843.191 85.8679C853.544 87.22 863.29 85.4172 871.452 83.477C875.488 82.5221 879.577 81.4069 883.535 80.3221C893.558 77.5875 903.926 74.7611 914.31 74.2722C915.924 74.1958 917.523 74.1805 919.052 74.2187C925.163 74.3944 934.186 74.9903 941.964 78.0763C944.747 79.184 947.291 80.5666 949.528 82.1936C959.227 89.1908 962.709 100.443 963.924 108.647C964.146 110.129 964.316 111.664 964.423 113.192C964.823 118.57 964.677 124.054 964.538 129.348C964.377 135.482 964.216 141.822 964.892 148.01C965.899 157.207 969.373 169.857 980.256 177.908C986.144 182.262 993.853 184.874 1001.42 185.065C1001.75 185.073 1002.07 185.081 1002.39 185.081C1007.75 185.081 1012.83 183.973 1017.73 182.308C1017.2 182.621 1016.67 182.934 1016.15 183.247C1015.27 183.782 1014.39 184.34 1013.51 184.897C1007.14 187.754 1000.49 189.87 993.292 189.916C993.215 189.916 993.146 189.916 993.069 189.916C985.429 189.916 977.682 187.418 971.771 183.056C960.788 174.944 957.559 161.943 956.775 152.463C956.284 146.512 956.537 140.409 956.783 134.512C957.021 128.76 957.267 122.817 956.837 116.958C956.722 115.377 956.545 113.795 956.307 112.268C955 103.766 951.242 92.1546 940.765 85.104C938.383 83.4922 935.67 82.1402 932.703 81.0784C924.563 78.1756 915.209 77.8319 908.884 77.8243C907.293 77.8243 905.64 77.893 903.98 78.0152C893.796 78.802 883.735 81.8805 874.004 84.852C869.523 86.2193 864.889 87.6401 860.315 88.8089C852.66 90.772 842.507 92.7963 831.831 91.0852C820.156 89.2061 809.626 83.7061 800.533 74.7611C795.883 70.2007 791.533 64.464 786.836 56.7106C784.046 52.1044 782.332 48.0253 781.61 44.2594C780.642 39.2483 780.926 34.6039 781.395 29.0429L781.41 28.8596C781.825 23.9554 782.294 18.3944 781.533 13.4063C781.303 11.8938 781.018 10.473 780.718 9.03687C780.457 7.76119 780.142 6.43204 779.765 4.98067C779.327 3.30013 778.851 1.64252 778.366 0.0078125H777.567C778.074 1.70363 778.566 3.42236 779.02 5.17164C779.396 6.60774 779.704 7.92161 779.965 9.18965C780.257 10.6181 780.542 12.0236 780.772 13.5208C781.525 18.425 781.057 23.9325 780.642 28.7984L780.626 28.9818C780.15 34.5963 779.865 39.3018 780.849 44.4045C781.595 48.2621 783.339 52.4176 786.175 57.1078C790.902 64.9147 795.291 70.6973 799.987 75.3111C809.195 84.3783 819.864 89.9394 831.7 91.8491C842.522 93.5831 852.775 91.5359 860.5 89.5574C865.088 88.3811 869.738 86.9679 874.227 85.5929C883.919 82.6291 893.942 79.5735 904.034 78.7867C905.678 78.6569 907.308 78.5958 908.876 78.5958C915.148 78.6034 924.409 78.9395 932.434 81.8041C935.331 82.8429 937.991 84.1645 940.32 85.7457C950.565 92.6359 954.254 104.041 955.538 112.39C955.769 113.902 955.945 115.461 956.061 117.019C956.491 122.832 956.245 128.752 956.007 134.489C955.761 140.409 955.507 146.535 955.999 152.532C956.791 162.164 960.088 175.387 971.302 183.675C977.343 188.136 985.26 190.688 993.054 190.688C993.131 190.688 993.2 190.688 993.277 190.688C999.08 190.649 1004.52 189.297 1009.73 187.304C1008.92 187.831 1008.1 188.35 1007.27 188.877C1000.36 192.452 993.115 195.256 985.137 195.546C977.128 195.821 968.989 193.369 962.824 188.831C951.472 180.459 948.436 166.916 947.89 157.023C947.545 151.218 947.89 145.283 948.221 139.538C948.574 133.404 948.936 127.056 948.475 120.808C948.352 119.196 948.167 117.592 947.921 116.034C946.545 107.379 942.579 95.6074 931.534 88.6713C929.052 87.1054 926.223 85.8144 923.141 84.829C916.67 82.7589 909.122 81.9645 898.676 82.2318C897.047 82.2777 895.364 82.3923 893.665 82.568C883.689 83.6374 873.874 86.9526 864.381 90.1609C859.454 91.8262 854.359 93.5525 849.332 94.9275C837.887 98.0594 828.948 98.7317 820.34 97.1046C808.465 94.8588 797.92 88.6408 788.981 78.6416C784.415 73.516 780.134 67.1223 775.899 59.0786C773.555 54.6329 771.972 50.6225 771.065 46.8413C769.781 41.5094 769.52 36.2463 769.435 31.8081C769.404 30.1429 769.404 28.4471 769.397 26.736C769.389 23.3825 769.381 19.9145 769.182 16.5993L769.082 14.9875C769.02 14.0174 768.966 13.0625 768.913 12.1229C768.843 10.8014 768.743 9.40353 768.59 7.73064C768.351 5.14109 768.044 2.55917 767.737 0.0307289H766.96C767.268 2.58209 767.583 5.19456 767.829 7.79175C767.975 9.44937 768.075 10.8396 768.144 12.1535C768.19 13.0931 768.252 14.0556 768.313 15.0257L768.413 16.6375C768.605 19.9298 768.62 23.3902 768.628 26.736C768.636 28.4471 768.636 30.1505 768.667 31.8234C768.751 36.3074 769.02 41.6163 770.319 47.0246C771.249 50.8746 772.848 54.9384 775.223 59.4453C779.481 67.5348 783.808 73.9819 788.435 79.1534C797.489 89.2825 808.181 95.5768 820.225 97.8608C828.956 99.5108 838.003 98.8386 849.562 95.6761C854.612 94.2935 859.716 92.5671 864.658 90.9019C874.112 87.7012 883.881 84.4013 893.773 83.3395C895.448 83.1638 897.116 83.0492 898.723 83.0034C909.083 82.736 916.539 83.5304 922.934 85.57C925.954 86.5325 928.721 87.8005 931.15 89.3283C941.949 96.1115 945.831 107.661 947.183 116.163C947.429 117.706 947.614 119.288 947.729 120.877C948.19 127.072 947.829 133.397 947.475 139.508C947.145 145.267 946.799 151.225 947.145 157.077C947.698 167.129 950.788 180.91 962.386 189.458C968.366 193.865 976.16 196.348 983.938 196.348C984.353 196.348 984.768 196.34 985.183 196.325C990.971 196.111 996.359 194.614 1001.5 192.46C993.93 196.928 985.967 200.618 977.021 201.176C968.712 201.687 960.296 199.296 953.916 194.599C942.249 186.013 939.39 171.896 939.051 161.568C938.867 155.931 939.282 150.194 939.682 144.648C940.158 138.094 940.65 131.319 940.151 124.642C939.067 110.052 932.58 98.2275 922.35 92.2234C912.158 86.2346 898.915 86.0818 888.516 86.6165C876.825 87.22 865.526 91.406 854.605 95.4546C839.916 100.901 824.736 106.531 808.903 103.101C790.426 99.0983 775.646 85.0888 764.97 61.439C758.467 47.0475 755.754 31.0443 757.107 15.1632C757.514 10.4042 757.629 5.49247 757.729 0.741137C757.737 0.504334 757.745 0.267532 757.745 0.0307289H756.976C756.976 0.259893 756.968 0.496696 756.961 0.72586C756.861 5.46192 756.746 10.366 756.346 15.1021C754.978 31.113 757.714 47.2385 764.262 61.7446C775.046 85.6235 790.011 99.7858 808.734 103.834C824.79 107.31 840.078 101.642 854.866 96.1574C865.742 92.1241 876.979 87.9609 888.546 87.3651C898.846 86.838 911.935 86.9832 921.95 92.8651C931.957 98.7469 938.314 110.343 939.374 124.688C939.866 131.303 939.374 138.056 938.905 144.58C938.498 150.148 938.083 155.908 938.275 161.576C938.621 172.072 941.542 186.425 953.455 195.194C959.396 199.564 967.059 201.985 974.792 201.985C975.553 201.985 976.313 201.962 977.074 201.917C988.504 201.206 998.296 195.508 1007.68 189.534C1011.2 187.708 1014.64 185.684 1018.03 183.683C1018.34 183.499 1018.66 183.316 1018.96 183.133C1021.16 182.017 1023.33 180.856 1025.49 179.695C1027.21 178.771 1028.93 177.847 1030.65 176.953C1034.24 175.097 1037.95 173.332 1041.75 171.675C1082.07 156.534 1130.37 157.207 1169.99 173.661V172.843H1169.97Z" fill="#93a7d1"></path></svg>